<svg width="48" height="36" viewBox="0 0 48 36" fill="none" xmlns="http://www.w3.org/2000/svg">
<g clip-path="url(#clip0_9_15294)">
<path d="M19.8575 27.4987C20.945 27.4987 22.0311 27.4987 23.1186 27.4987C23.9356 27.4987 24.267 27.8258 24.2812 28.6372C24.3038 29.973 23.7044 30.8821 22.4828 31.3644C21.0838 31.9153 20.254 32.9419 19.9212 34.3933C19.7442 35.1665 19.5375 35.3364 18.7459 35.3406C17.8963 35.3463 17.0467 35.3491 16.1971 35.3421C15.4961 35.3364 15.2639 35.1339 15.1081 34.4358C14.7725 32.9362 13.9003 31.894 12.4658 31.3305C12.1175 31.1931 11.7706 31.0501 11.425 30.9042C10.0614 30.3293 8.76574 30.4723 7.53522 31.2738C6.94048 31.6604 6.56241 31.6377 6.06113 31.1464C5.44091 30.5375 4.82636 29.9229 4.2203 29.2999C3.75159 28.8198 3.72752 28.4474 4.10418 27.8754C4.93964 26.6038 5.04301 25.2699 4.45536 23.8737C4.29393 23.4927 4.14241 23.1062 3.97532 22.7281C3.43298 21.4933 2.51681 20.6876 1.20416 20.3548C0.110984 20.0787 0.0486792 20.0037 0.0472632 18.8609C0.0472632 18.0906 0.0515112 17.3189 0.0472632 16.5485C0.0430151 15.9496 0.296484 15.5984 0.912456 15.4766C2.47009 15.1679 3.5491 14.2602 4.07445 12.7564C4.35907 11.945 4.65077 11.1223 4.78671 10.2798C4.92689 9.41602 4.58563 8.61171 4.09993 7.88529C3.72469 7.32454 3.75017 6.94646 4.2203 6.46218C4.82636 5.83913 5.4395 5.22316 6.06396 4.6171C6.58081 4.11583 6.93907 4.09742 7.53522 4.48541C8.76858 5.2883 10.0685 5.40866 11.4321 4.85924C11.7975 4.71197 12.16 4.55479 12.5253 4.4047C13.9059 3.83828 14.764 2.83149 15.0926 1.37581C15.2653 0.60691 15.4834 0.425658 16.2636 0.42141C17.133 0.417162 18.0025 0.422826 18.8719 0.42141C19.4468 0.418578 19.7839 0.664967 19.9 1.25687C20.2143 2.85981 21.1319 3.9544 22.6995 4.48541C23.0152 4.59303 23.3211 4.74029 23.6199 4.89181C24.0404 5.10563 24.2698 5.4568 24.2769 5.93684C24.2826 6.27244 24.2797 6.60803 24.2783 6.94505C24.2755 7.98441 23.9951 8.25771 22.9317 8.25346C21.173 8.24638 19.4143 8.23363 17.6556 8.23222C12.7221 8.22939 8.8323 11.4919 7.96994 16.3503C7.07359 21.397 10.5896 26.4735 15.666 27.3401C17.0368 27.5737 18.4556 27.5284 19.8532 27.6106C19.8547 27.5737 19.8561 27.5383 19.8589 27.5015L19.8575 27.4987Z" fill="#495360"/>
<path d="M24.0631 14.4585C25.8218 14.4585 27.5819 14.4486 29.3406 14.4656C29.8107 14.4698 30.1619 14.3226 30.4904 13.9827C31.4378 13.0014 32.429 12.064 33.3721 11.0785C33.9441 10.4809 34.6026 10.2104 35.4281 10.2246C36.9305 10.2515 38.4329 10.2246 39.9353 10.2402C40.3417 10.2444 40.5952 10.151 40.8175 9.75447C41.5609 8.42623 43.1271 7.80743 44.5856 8.19542C46.0328 8.57916 47.1103 9.93713 47.1302 11.4027C47.1514 12.9419 46.1475 14.3084 44.6804 14.7389C43.1936 15.175 41.6105 14.5944 40.843 13.2506C40.6037 12.8329 40.3417 12.7395 39.9099 12.7465C38.566 12.7678 37.2208 12.7253 35.8784 12.7749C35.5258 12.7876 35.1053 12.9646 34.8476 13.2053C33.8223 14.1626 32.8325 15.1594 31.8611 16.1719C31.333 16.7227 30.7198 16.9918 29.9665 16.9918C26.1914 16.9889 22.4148 16.9932 18.6397 16.9861C17.8028 16.9847 17.5225 16.6534 17.5239 15.7428C17.5239 14.7913 17.8042 14.4656 18.6666 14.4613C20.465 14.4528 22.2647 14.4585 24.0631 14.4585ZM43.7133 9.8989C42.8382 9.8989 42.133 10.597 42.1259 11.4664C42.1189 12.3642 42.8297 13.0864 43.726 13.0935C44.5615 13.0991 45.3092 12.3571 45.3219 11.5103C45.3347 10.6154 44.6196 9.8989 43.7133 9.8989Z" fill="#495360"/>
<path d="M25.3886 19.0337C27.6018 19.0337 29.8165 19.0224 32.0298 19.0436C32.422 19.0479 32.6202 18.9204 32.8086 18.582C33.5506 17.2481 35.1224 16.5925 36.5582 16.9748C38.1017 17.3855 39.1311 18.7109 39.1212 20.2713C39.1113 21.8275 38.096 23.1628 36.6191 23.5593C35.1408 23.9558 33.5576 23.3214 32.8072 21.9819C32.6132 21.6364 32.4064 21.5302 32.0255 21.5316C27.6174 21.5443 23.2093 21.5372 18.8012 21.5429C18.3495 21.5429 17.8058 21.55 17.6882 21.0785C17.558 20.5559 17.5962 19.9499 17.7321 19.4245C17.7817 19.2291 18.3127 19.0521 18.6271 19.0479C20.88 19.0167 23.1343 19.0309 25.3872 19.0309L25.3886 19.0337ZM35.7256 18.6924C34.8434 18.6939 34.1411 19.3778 34.1226 20.2529C34.1042 21.111 34.8746 21.8913 35.7355 21.8856C36.6219 21.8799 37.3271 21.1478 37.3172 20.2416C37.3073 19.358 36.6219 18.6896 35.7256 18.691V18.6924Z" fill="#495360"/>
<path d="M22.3993 12.4252C21.1744 12.4252 19.951 12.4252 18.7261 12.4252C17.7887 12.4252 17.5281 12.1476 17.5295 11.1649C17.531 10.2119 17.8113 9.9273 18.7587 9.92589C20.8912 9.92447 23.0252 9.90606 25.1577 9.9358C25.7708 9.9443 26.224 9.76163 26.5879 9.28301C26.7663 9.04795 26.9603 8.81714 27.1826 8.62456C27.8793 8.0185 28.2064 7.46483 27.8906 6.38865C27.3455 4.53366 28.6723 2.78486 30.6207 2.38696C32.2945 2.0457 34.0588 3.21392 34.4723 4.93722C34.9141 6.78089 33.8535 8.55517 31.9929 9.02246C31.6006 9.12159 31.1645 9.14283 30.7637 9.09043C30.3333 9.03379 30.0713 9.17398 29.8008 9.48409C29.1792 10.1992 28.5137 10.876 27.885 11.5841C27.3667 12.1689 26.7436 12.4507 25.9549 12.4337C24.7711 12.4096 23.5845 12.428 22.4007 12.428V12.4252H22.3993ZM31.1815 7.32748C32.0778 7.3204 32.8042 6.58406 32.7844 5.70188C32.766 4.85651 32.0212 4.13151 31.1716 4.13009C30.2908 4.13009 29.5729 4.87209 29.587 5.77268C29.6012 6.65628 30.295 7.33314 31.1815 7.32606V7.32748Z" fill="#495360"/>
<path d="M22.4262 23.5651C23.6511 23.5651 24.8745 23.5707 26.0994 23.5622C26.8584 23.5566 27.4743 23.827 27.9685 24.4118C28.4656 24.9995 28.9739 25.5801 29.5163 26.1252C29.6607 26.2711 29.9566 26.3702 30.1591 26.3391C31.6672 26.1054 33.1682 26.8814 33.8167 28.2719C34.4724 29.6766 34.0914 31.3178 32.8722 32.3416C31.7777 33.2606 30.06 33.3399 28.8352 32.5271C27.5721 31.6888 26.9929 30.0547 27.5367 28.6203C27.7292 28.1147 27.6429 27.8103 27.3002 27.4336C25.8417 25.8335 26.3897 26.087 24.3024 26.07C22.4262 26.0558 20.55 26.07 18.6737 26.0658C17.7901 26.0658 17.5353 25.7811 17.5296 24.8126C17.5253 23.8752 17.8085 23.5693 18.6921 23.5665C19.9368 23.5636 21.1801 23.5665 22.4248 23.5651H22.4262ZM30.7255 31.2937C31.6205 31.2966 32.3384 30.5716 32.3299 29.6738C32.3214 28.8256 31.5822 28.0935 30.734 28.0921C29.8589 28.0921 29.1184 28.844 29.1269 29.7262C29.1353 30.5843 29.8561 31.2923 30.7241 31.2937H30.7255Z" fill="#495360"/>
</g>
<defs>
<clipPath id="clip0_9_15294">
<rect width="47.0843" height="34.9263" fill="white" transform="translate(0.0473022 0.420044)"/>
</clipPath>
</defs>
</svg>
